<?xml version="1.0" encoding="iso-8859-1"?>
<!-- Generator: Adobe Illustrator 19.0.0, SVG Export Plug-In . SVG Version: 6.00 Build 0)  -->
<svg version="1.1" id="Layer_1" xmlns="http://www.w3.org/2000/svg" xmlns:xlink="http://www.w3.org/1999/xlink" x="0px" y="0px"
	 viewBox="0 0 496 496" style="enable-background:new 0 0 496 496;" xml:space="preserve">
<path style="fill:#FFA64D;" d="M75.312,346.84l3.472-1.2C90.24,321.072,115.096,304,144,304c2.024,0,4.008,0.136,5.984,0.304
	c0.008-0.104,0.008-0.2,0.016-0.304c12.8-32.776,44.688-56,82-56c18.12,0,34.952,5.488,48.952,14.872
	C295.592,244.112,318.36,232,344,232c13.328,0,25.864,3.304,36.912,9.072L384,240v-88h-53.792
	c-2.96-10.232-7.048-20.096-12.208-29.44l38.048-38.04l-56.56-56.568L261.44,66c-9.344-5.168-19.2-9.248-29.44-12.208V0h-80v53.792
	c-10.232,2.96-20.096,7.048-29.44,12.208L84.512,27.952L27.952,84.52L66,122.56c-5.168,9.344-9.248,19.2-12.208,29.44H0v80h53.792
	c2.96,10.232,7.048,20.096,12.208,29.44l-38.048,38.04L75.312,346.84z"/>
<path style="fill:#333333;" d="M431.2,323.208c0.472-3.712,0.8-7.448,0.8-11.208c0-48.52-39.48-88-88-88
	c-24.832,0-48.04,10.288-64.704,28.456c-3.032-1.72-6.176-3.168-9.36-4.536C281.608,231.68,288,212.24,288,192
	c0-52.936-43.064-96-96-96s-96,43.064-96,96c0,38.4,23.344,73.048,57.952,88.072c-3.528,4.952-6.616,10.288-9.208,15.968
	c-0.248-0.008-0.496-0.04-0.744-0.04c-41.416,0-75.576,31.648-79.592,72.024C64.272,368.016,64.136,368,64,368
	c-35.288,0-64,28.712-64,64s28.712,64,64,64h344c48.52,0,88-39.48,88-88C496,367.52,468.488,333.424,431.2,323.208z M112,192
	c0-44.112,35.888-80,80-80s80,35.888,80,80c0,18.584-6.464,36.368-18.176,50.64c-7.112-1.656-14.4-2.64-21.824-2.64
	c-25.792,0-49.56,10.096-67.08,27.248C133.544,255.936,112,225.696,112,192z M408,480H64c-26.472,0-48-21.528-48-48s21.528-48,48-48
	s48,21.528,48,48h16c0-29.648-20.296-54.584-47.704-61.816C83.248,337.616,110.672,312,144,312c35.288,0,64,28.712,64,64h16
	c0-38.056-26.728-69.928-62.384-77.984C175.456,272.232,202.104,256,232,256c15.92,0,31.304,4.672,44.496,13.512l6.184,4.152
	l4.584-5.864C301.04,250.136,321.72,240,344,240c39.696,0,72,32.296,72,72c0,2.808-0.208,5.6-0.528,8.376
	C413,320.168,410.52,320,408,320c-48.52,0-88,39.48-88,88h16c0-39.704,32.304-72,72-72s72,32.296,72,72S447.696,480,408,480z"/>
<g>
</g>
<g>
</g>
<g>
</g>
<g>
</g>
<g>
</g>
<g>
</g>
<g>
</g>
<g>
</g>
<g>
</g>
<g>
</g>
<g>
</g>
<g>
</g>
<g>
</g>
<g>
</g>
<g>
</g>
</svg>
