<?xml version="1.0" encoding="iso-8859-1"?>
<!-- Generator: Adobe Illustrator 19.0.0, SVG Export Plug-In . SVG Version: 6.00 Build 0)  -->
<svg version="1.1" id="Layer_1" xmlns="http://www.w3.org/2000/svg" xmlns:xlink="http://www.w3.org/1999/xlink" x="0px" y="0px"
	 viewBox="0 0 496 496" style="enable-background:new 0 0 496 496;" xml:space="preserve">
<path style="fill:#333333;" d="M432,0.2V0H188c-37.496,0-68,30.504-68,68v92h16V68c0-28.672,23.328-52,52-52h196.272
	C369.456,28.488,360,47.152,360,68v24h16V80h120V68C496,31.856,467.624,2.288,432,0.2z M376.152,64c2.056-26.816,24.52-48,51.848-48
	s49.8,21.184,51.848,48H376.152z"/>
<path style="fill:#F9BA48;" d="M423.824,177.432C420.4,114.304,367.96,64,304,64c-43.208,0-83.328,23.752-104.464,61.168
	C192.2,121.776,184.208,120,176,120c-19.608,0-37.688,10.344-47.776,26.848C120.312,144.96,112.192,144,104,144
	C46.656,144,0,190.656,0,248s46.656,104,104,104h24v-96h240v96h40c48.52,0,88-39.48,88-88
	C496,220.952,465.44,184.904,423.824,177.432z"/>
<g>
	<path style="fill:#333333;" d="M96,264h24v152H0v12c0,37.496,30.504,68,68,68h240c37.496,0,68-30.504,68-68V264h24v-16H96V264z
		 M68,480c-27.328,0-49.8-21.184-51.848-48H240.12c1.12,19.216,10.256,36.32,24.112,48H68z M360,428c0,28.672-23.328,52-52,52
		s-52-23.328-52-52v-12H136V264h224V428z"/>
	<rect x="152" y="280" style="fill:#333333;" width="192" height="16"/>
	<rect x="152" y="312" style="fill:#333333;" width="192" height="16"/>
	<rect x="152" y="344" style="fill:#333333;" width="192" height="16"/>
	<rect x="240" y="376" style="fill:#333333;" width="104" height="16"/>
</g>
<g>
</g>
<g>
</g>
<g>
</g>
<g>
</g>
<g>
</g>
<g>
</g>
<g>
</g>
<g>
</g>
<g>
</g>
<g>
</g>
<g>
</g>
<g>
</g>
<g>
</g>
<g>
</g>
<g>
</g>
</svg>
